<svg width="226" height="126" viewBox="0 0 226 126" fill="none" xmlns="http://www.w3.org/2000/svg">
<rect width="226" height="126" rx="24" fill="#101010"/>
<path d="M65.8 56.152C67.576 56.152 69.128 56.504 70.456 57.208C71.784 57.912 72.808 58.904 73.528 60.184C74.264 61.448 74.632 62.912 74.632 64.576C74.632 66.224 74.264 67.688 73.528 68.968C72.808 70.248 71.776 71.24 70.432 71.944C69.104 72.648 67.56 73 65.8 73H59.488V56.152H65.8ZM65.536 69.448C67.088 69.448 68.296 69.024 69.16 68.176C70.024 67.328 70.456 66.128 70.456 64.576C70.456 63.024 70.024 61.816 69.16 60.952C68.296 60.088 67.088 59.656 65.536 59.656H63.592V69.448H65.536ZM84.8935 73.168C83.3095 73.168 81.8535 72.8 80.5255 72.064C79.2135 71.328 78.1655 70.304 77.3815 68.992C76.6135 67.664 76.2295 66.176 76.2295 64.528C76.2295 62.88 76.6135 61.4 77.3815 60.088C78.1655 58.776 79.2135 57.752 80.5255 57.016C81.8535 56.28 83.3095 55.912 84.8935 55.912C86.4775 55.912 87.9255 56.28 89.2375 57.016C90.5655 57.752 91.6055 58.776 92.3575 60.088C93.1255 61.4 93.5095 62.88 93.5095 64.528C93.5095 66.176 93.1255 67.664 92.3575 68.992C91.5895 70.304 90.5495 71.328 89.2375 72.064C87.9255 72.8 86.4775 73.168 84.8935 73.168ZM84.8935 69.424C86.2375 69.424 87.3095 68.976 88.1095 68.08C88.9255 67.184 89.3335 66 89.3335 64.528C89.3335 63.04 88.9255 61.856 88.1095 60.976C87.3095 60.08 86.2375 59.632 84.8935 59.632C83.5335 59.632 82.4455 60.072 81.6295 60.952C80.8295 61.832 80.4295 63.024 80.4295 64.528C80.4295 66.016 80.8295 67.208 81.6295 68.104C82.4455 68.984 83.5335 69.424 84.8935 69.424ZM103.761 73.168C102.177 73.168 100.721 72.8 99.3927 72.064C98.0807 71.328 97.0327 70.304 96.2487 68.992C95.4807 67.664 95.0967 66.176 95.0967 64.528C95.0967 62.88 95.4807 61.4 96.2487 60.088C97.0327 58.776 98.0807 57.752 99.3927 57.016C100.721 56.28 102.177 55.912 103.761 55.912C105.345 55.912 106.793 56.28 108.105 57.016C109.433 57.752 110.473 58.776 111.225 60.088C111.993 61.4 112.377 62.88 112.377 64.528C112.377 66.176 111.993 67.664 111.225 68.992C110.457 70.304 109.417 71.328 108.105 72.064C106.793 72.8 105.345 73.168 103.761 73.168ZM103.761 69.424C105.105 69.424 106.177 68.976 106.977 68.08C107.793 67.184 108.201 66 108.201 64.528C108.201 63.04 107.793 61.856 106.977 60.976C106.177 60.08 105.105 59.632 103.761 59.632C102.401 59.632 101.313 60.072 100.497 60.952C99.6967 61.832 99.2967 63.024 99.2967 64.528C99.2967 66.016 99.6967 67.208 100.497 68.104C101.313 68.984 102.401 69.424 103.761 69.424ZM123.252 73L119.748 66.64H118.764V73H114.66V56.152H121.548C122.876 56.152 124.004 56.384 124.932 56.848C125.876 57.312 126.58 57.952 127.044 58.768C127.508 59.568 127.74 60.464 127.74 61.456C127.74 62.576 127.42 63.576 126.78 64.456C126.156 65.336 125.228 65.96 123.996 66.328L127.884 73H123.252ZM118.764 63.736H121.308C122.06 63.736 122.62 63.552 122.988 63.184C123.372 62.816 123.564 62.296 123.564 61.624C123.564 60.984 123.372 60.48 122.988 60.112C122.62 59.744 122.06 59.56 121.308 59.56H118.764V63.736ZM141.284 56.152V59.44H134.42V62.992H139.556V66.184H134.42V73H130.316V56.152H141.284ZM152.033 73L148.529 66.64H147.545V73H143.441V56.152H150.329C151.657 56.152 152.785 56.384 153.713 56.848C154.657 57.312 155.361 57.952 155.825 58.768C156.289 59.568 156.521 60.464 156.521 61.456C156.521 62.576 156.201 63.576 155.561 64.456C154.937 65.336 154.009 65.96 152.777 66.328L156.665 73H152.033ZM147.545 63.736H150.089C150.841 63.736 151.401 63.552 151.769 63.184C152.153 62.816 152.345 62.296 152.345 61.624C152.345 60.984 152.153 60.48 151.769 60.112C151.401 59.744 150.841 59.56 150.089 59.56H147.545V63.736ZM167.065 73.168C165.481 73.168 164.025 72.8 162.697 72.064C161.385 71.328 160.337 70.304 159.553 68.992C158.785 67.664 158.401 66.176 158.401 64.528C158.401 62.88 158.785 61.4 159.553 60.088C160.337 58.776 161.385 57.752 162.697 57.016C164.025 56.28 165.481 55.912 167.065 55.912C168.649 55.912 170.097 56.28 171.409 57.016C172.737 57.752 173.777 58.776 174.529 60.088C175.297 61.4 175.681 62.88 175.681 64.528C175.681 66.176 175.297 67.664 174.529 68.992C173.761 70.304 172.721 71.328 171.409 72.064C170.097 72.8 168.649 73.168 167.065 73.168ZM167.065 69.424C168.409 69.424 169.481 68.976 170.281 68.08C171.097 67.184 171.505 66 171.505 64.528C171.505 63.04 171.097 61.856 170.281 60.976C169.481 60.08 168.409 59.632 167.065 59.632C165.705 59.632 164.617 60.072 163.801 60.952C163.001 61.832 162.601 63.024 162.601 64.528C162.601 66.016 163.001 67.208 163.801 68.104C164.617 68.984 165.705 69.424 167.065 69.424ZM193.037 73H188.933L182.069 62.608V73H177.965V56.152H182.069L188.933 66.592V56.152H193.037V73ZM208.131 56.152V59.44H203.667V73H199.563V59.44H195.099V56.152H208.131Z" fill="white"/>
<rect x="20" y="45" width="29" height="36" rx="4" stroke="white" stroke-width="4"/>
<path d="M30.2742 63C30.2742 64.1226 29.3243 65.0641 28.113 65.0641C26.9016 65.0641 25.9517 64.1226 25.9517 63C25.9517 61.8774 26.9016 60.9359 28.113 60.9359C29.3243 60.9359 30.2742 61.8774 30.2742 63Z" fill="white" stroke="white"/>
<path d="M28.1128 65.0513V69.1539" stroke="white" stroke-width="2"/>
</svg>
